# Blender v2.83.2 OBJ File: ''
# www.blender.org
mtllib Small_Wall.mtl
o Wall_Preset_02_—_kopia
v -3.000000 3.078371 -1.000000
v -3.000000 0.000000 -1.000000
v -3.000000 0.000000 0.000000
v -3.000000 3.078371 0.000001
v 3.000000 3.078371 -1.000000
v 3.000000 3.078371 0.000001
v 3.000000 0.000000 -1.000000
v 3.000000 0.000000 0.000000
v 3.000000 4.324051 -0.264456
v -3.000000 4.324051 -0.264456
v -3.000000 4.325632 0.150675
v 3.000000 4.325632 0.150675
v -3.000000 4.325632 -1.150672
v -3.000000 4.324051 -0.735541
v 3.000000 4.324051 -0.735541
v 3.000000 4.325632 -1.150672
v 3.000000 4.238789 -0.345599
v -3.000000 4.238789 -0.345599
v -3.000000 4.238789 -0.654397
v 3.000000 4.238789 -0.654397
v 3.000000 3.883565 -1.188563
v -3.000000 3.883565 -1.188563
v -3.000000 4.254919 -1.205981
v 3.000000 4.254919 -1.205981
v -3.000000 3.883565 -1.115495
v 3.000000 3.883565 -1.115497
v -3.000000 3.542734 -1.115495
v 3.000000 3.542734 -1.115497
v -3.000000 3.542734 -1.175681
v 3.000000 3.542734 -1.175681
v -3.000000 3.078371 -1.152008
v 3.000000 3.078371 -1.152008
v 3.000000 3.078371 -0.814613
v -3.000000 3.078371 -0.814613
v -3.000000 3.883565 0.188566
v 3.000000 3.883565 0.188566
v 3.000000 4.254919 0.205984
v -3.000000 4.254919 0.205984
v 3.000000 3.883565 0.115499
v -3.000000 3.883565 0.115498
v 3.000000 3.542734 0.115499
v -3.000000 3.542734 0.115498
v 3.000000 3.542734 0.175684
v -3.000000 3.542734 0.175684
v 3.000000 3.078371 0.152010
v -3.000000 3.078371 0.152010
v -3.000000 3.078371 -0.185385
v 3.000000 3.078371 -0.185385
v -0.008240 -2.987022 -0.520481
v 2.419884 0.003056 -0.175873
v 1.007126 0.003052 -0.063923
v 0.928131 0.003056 -1.060797
v -0.545338 -0.002972 -0.134617
v -0.595066 -0.002972 -1.133380
v -1.891617 -0.002972 -0.068647
v -1.941345 -0.002972 -1.067411
v 0.725845 2.976341 -0.560018
v 0.725845 2.017876 -0.560018
v 0.751198 2.017872 -1.106577
v 0.751198 2.976337 -1.106577
v -1.175701 2.976341 -0.644400
v -1.150345 2.976341 -1.190951
v -1.175701 2.017876 -0.644400
v -1.150345 2.017876 -1.190951
v 3.031555 2.997684 0.050629
v 3.031555 2.016102 0.050629
v 3.057594 2.016102 -1.090034
v 3.057594 2.997684 -1.090034
v 1.445755 2.997684 0.010765
v 1.471794 2.997684 -1.129897
v 1.445755 2.016102 0.010765
v 1.471794 2.016102 -1.129898
v 1.452713 2.992783 -0.529429
v 1.452713 2.018044 -0.529430
v 1.441872 2.018044 -1.076469
v 1.441872 2.992783 -1.076468
v 0.762848 2.992783 -0.515761
v 0.752007 2.992783 -1.062801
v 0.762848 2.018044 -0.515762
v 0.752007 2.018044 -1.062801
v 3.119576 1.989944 0.034977
v 3.119576 0.998608 0.034977
v 3.091362 0.998608 -1.121468
v 3.091362 1.989944 -1.121468
v 1.162693 1.989944 0.089592
v 1.134483 1.989944 -1.066849
v 1.162693 0.998608 0.089592
v 1.134483 0.998608 -1.066849
v 0.012352 1.998875 -0.583341
v 0.012352 1.010662 -0.583341
v -0.005558 1.010662 -1.130197
v -0.005558 1.998878 -1.130197
v -1.599749 1.998878 -0.531751
v -1.617659 1.998878 -1.078603
v -1.599749 1.010662 -0.531751
v -1.617659 1.010662 -1.078603
v -1.595951 1.999428 0.024902
v -1.595951 1.004635 0.024902
v -1.628349 1.004635 -1.101746
v -1.628349 1.999428 -1.101746
v -3.036171 1.999428 0.067696
v -3.068573 1.999424 -1.058956
v -3.036171 1.004635 0.067695
v -3.068573 1.004631 -1.058956
v 0.337154 0.982452 -0.560885
v 0.337154 -0.002750 -0.560885
v 0.370346 -0.002754 -1.107023
v 0.370346 0.982452 -1.107023
v -0.871170 0.982452 -0.634323
v -0.837977 0.982452 -1.180461
v -0.871170 -0.002747 -0.634323
v -0.837979 -0.002754 -1.180461
v -1.318378 0.983452 0.064729
v -1.318378 0.015327 0.064729
v -1.289696 0.015327 -1.076565
v -1.289696 0.983452 -1.076565
v -3.127480 0.983452 0.013036
v -3.098801 0.983452 -1.128258
v -3.127480 0.015327 0.013036
v -3.098801 0.015327 -1.128258
vt 0.448732 0.918591
vt 0.885280 0.918591
vt 0.885280 0.845613
vt 0.448732 0.845613
vt 0.449819 0.973762
vt 0.884216 0.973762
vt 0.884216 0.994477
vt 0.449819 0.994477
vt 0.884216 0.924016
vt 0.884216 0.944310
vt 0.449819 0.944310
vt 0.449819 0.924016
vt 0.449820 0.966196
vt 0.884215 0.966196
vt 0.884215 0.951876
vt 0.449820 0.951876
vt 0.885824 0.315842
vt 0.885823 0.319836
vt 0.448175 0.319836
vt 0.448174 0.315843
vt 0.885827 0.292921
vt 0.448171 0.292922
vt 0.885827 0.288156
vt 0.448171 0.288157
vt 0.885831 0.254336
vt 0.448166 0.254338
vt 0.448163 0.229062
vt 0.885834 0.229060
vt 0.448174 0.315843
vt 0.448175 0.319836
vt 0.885823 0.319836
vt 0.885824 0.315842
vt 0.448171 0.292922
vt 0.885827 0.292921
vt 0.448171 0.288157
vt 0.885827 0.288156
vt 0.448166 0.254338
vt 0.885831 0.254336
vt 0.885834 0.229060
vt 0.448163 0.229062
vt 0.547545 0.250989
vt 0.496523 0.250989
vt 0.469165 0.250989
vt 0.467245 0.288643
vt 0.472126 0.288643
vt 0.472126 0.316280
vt 0.466201 0.316280
vt 0.464788 0.346392
vt 0.469273 0.352126
vt 0.502935 0.351997
vt 0.509514 0.345084
vt 0.534554 0.345084
vt 0.541133 0.351997
vt 0.574795 0.352126
vt 0.579280 0.346392
vt 0.577867 0.316280
vt 0.571942 0.316280
vt 0.571942 0.288643
vt 0.576823 0.288643
vt 0.574903 0.250989
vt 0.496523 0.250989
vt 0.547545 0.250989
vt 0.574903 0.250989
vt 0.576823 0.288643
vt 0.571943 0.288643
vt 0.571943 0.316280
vt 0.577867 0.316280
vt 0.579280 0.346392
vt 0.574795 0.352126
vt 0.541133 0.351998
vt 0.534554 0.345084
vt 0.509514 0.345084
vt 0.502935 0.351998
vt 0.469273 0.352126
vt 0.464788 0.346392
vt 0.466201 0.316280
vt 0.472125 0.316280
vt 0.472125 0.288643
vt 0.467245 0.288643
vt 0.469165 0.250989
vt 0.332475 0.913627
vt 0.246465 0.913623
vt 0.246458 0.850247
vt 0.332478 0.850253
vt 0.754652 0.840908
vt 0.754651 0.771101
vt 0.806269 0.771094
vt 0.806270 0.840915
vt 0.369224 0.889121
vt 0.246461 0.888969
vt 0.246458 0.850247
vt 0.369228 0.850247
vt 0.629802 0.627269
vt 0.629802 0.696181
vt 0.586562 0.696188
vt 0.586562 0.627262
vt 1.712919 0.802088
vt 1.806546 0.802088
vt 1.806548 0.839681
vt 1.712917 0.839681
vt 0.748033 0.699130
vt 0.748034 0.764494
vt 0.614628 0.768058
vt 0.614629 0.699130
vt 0.711933 0.839602
vt 0.711928 0.771100
vt 0.806269 0.771094
vt 0.806265 0.839602
vt 0.331616 0.921000
vt 0.246463 0.921000
vt 0.246461 0.850253
vt 0.331614 0.850253
vt 0.665587 0.627269
vt 0.665583 0.694888
vt 0.586570 0.694888
vt 0.586566 0.627269
vt 1.712919 0.770973
vt 1.777865 0.770977
vt 1.777865 0.839677
vt 1.712917 0.839681
vt 0.655502 0.766756
vt 0.655499 0.699141
vt 0.748031 0.699138
vt 0.748028 0.766756
vt 0.559739 0.699134
vt 0.559736 0.766759
vt 0.467207 0.766760
vt 0.467204 0.699138
vt 0.754669 0.840904
vt 0.754669 0.771105
vt 0.806252 0.771105
vt 0.806252 0.840904
vt 0.369224 0.889121
vt 0.326392 0.889066
vt 0.326394 0.850250
vt 0.369228 0.850247
vt 0.629802 0.627269
vt 0.629802 0.696181
vt 0.586562 0.696188
vt 0.586562 0.627262
vt 1.773880 0.802097
vt 1.806546 0.802088
vt 1.806548 0.839681
vt 1.773881 0.839671
vt 0.610404 0.699130
vt 0.610405 0.768058
vt 0.563860 0.768052
vt 0.563860 0.699135
vt 0.711928 0.840909
vt 0.711928 0.771100
vt 0.806269 0.771094
vt 0.806270 0.840915
vt 0.369225 0.921310
vt 0.246461 0.921005
vt 0.246458 0.850247
vt 0.369228 0.850247
vt 0.665591 0.627268
vt 0.665591 0.696182
vt 0.586562 0.696188
vt 0.586562 0.627262
vt 1.712919 0.770973
vt 1.806546 0.770973
vt 1.806548 0.839681
vt 1.712917 0.839681
vt 0.614634 0.768050
vt 0.614634 0.699137
vt 0.748031 0.699138
vt 0.748031 0.768050
vt 0.580919 0.625850
vt 0.580919 0.694752
vt 0.451122 0.694750
vt 0.451122 0.625852
vt 0.754660 0.840908
vt 0.754660 0.771101
vt 0.806261 0.771101
vt 0.806261 0.840908
vt 0.369224 0.889122
vt 0.260958 0.889010
vt 0.260958 0.850225
vt 0.369228 0.850247
vt 0.629802 0.627269
vt 0.629802 0.696181
vt 0.586562 0.696188
vt 0.586562 0.627262
vt 1.723975 0.802094
vt 1.806546 0.802088
vt 1.806548 0.839681
vt 1.723975 0.839675
vt 0.785255 0.625850
vt 0.783348 0.694990
vt 0.668227 0.694986
vt 0.668227 0.625855
vt 0.711928 0.840909
vt 0.711928 0.771100
vt 0.806269 0.771094
vt 0.806270 0.840915
vt 0.336281 0.921001
vt 0.246461 0.921005
vt 0.246458 0.850247
vt 0.336281 0.850251
vt 0.665587 0.627269
vt 0.665587 0.696181
vt 0.586566 0.696181
vt 0.586566 0.627269
vt 1.712919 0.770973
vt 1.781421 0.770977
vt 1.781421 0.839677
vt 1.712917 0.839681
vt 0.650432 0.768046
vt 0.650432 0.699141
vt 0.748031 0.699138
vt 0.748031 0.768050
vt 0.884056 0.625864
vt 0.884055 0.694737
vt 0.786482 0.694741
vt 0.786483 0.625860
vt 0.754652 0.840908
vt 0.754651 0.771101
vt 0.806269 0.771094
vt 0.806270 0.840915
vt 0.323650 0.888961
vt 0.246463 0.888961
vt 0.246458 0.850247
vt 0.323652 0.850253
vt 0.629801 0.627277
vt 0.629801 0.696174
vt 0.586570 0.696177
vt 0.586570 0.627273
vt 1.712920 0.802088
vt 1.771788 0.802088
vt 1.771790 0.839676
vt 1.712917 0.839681
vt 0.725378 0.554519
vt 0.725378 0.623306
vt 0.641576 0.623310
vt 0.641576 0.554515
vt 0.711928 0.840909
vt 0.711928 0.771100
vt 0.806269 0.771094
vt 0.806270 0.840915
vt 0.336303 0.921001
vt 0.246461 0.921005
vt 0.246458 0.850247
vt 0.336303 0.850251
vt 0.665587 0.627269
vt 0.665587 0.696181
vt 0.586566 0.696181
vt 0.586566 0.627269
vt 1.712919 0.770973
vt 1.781438 0.770977
vt 1.781438 0.839677
vt 1.712917 0.839681
vt 0.650408 0.768046
vt 0.650408 0.699141
vt 0.748031 0.699138
vt 0.748031 0.768050
vt 0.862169 0.554524
vt 0.862169 0.623300
vt 0.764647 0.623304
vt 0.764647 0.554520
vt 0.819365 0.775651
vt 0.819362 0.554215
vt 0.885009 0.554214
vt 0.885005 0.775651
vt 0.515947 0.554214
vt 0.515943 0.775650
vt 0.450022 0.775650
vt 0.450019 0.554213
vt 0.885194 0.554213
vt 0.885194 0.775651
vt 0.449343 0.775651
vt 0.449343 0.554213
vt 0.449344 0.775650
vt 0.449343 0.554215
vt 0.885194 0.554215
vt 0.885193 0.775650
vt 0.885819 0.345472
vt 0.448178 0.345472
vt 0.885818 0.355153
vt 0.448180 0.355153
vt 0.448178 0.345472
vt 0.885819 0.345472
vt 0.448180 0.355153
vt 0.885818 0.355153
vn 0.0000 1.0000 0.0000
vn 0.0000 1.0000 -0.0038
vn 0.0000 1.0000 0.0038
vn 0.0000 0.6894 -0.7244
vn 0.0000 0.6894 0.7244
vn 0.0000 -1.0000 0.0000
vn -0.0000 0.0000 -1.0000
vn 0.0000 -0.0509 -0.9987
vn -0.0000 -0.0000 1.0000
vn 0.0000 -0.0509 0.9987
vn -1.0000 0.0000 0.0000
vn 1.0000 -0.0000 0.0000
vn 0.9989 -0.0000 0.0463
vn -0.9989 -0.0000 -0.0463
vn 0.0443 0.0000 -0.9990
vn 0.9997 0.0000 0.0228
vn -0.9997 -0.0000 -0.0228
vn -0.0251 -0.0000 0.9997
vn 0.0251 0.0000 -0.9997
vn 0.9998 0.0000 -0.0198
vn -0.9998 0.0000 0.0198
vn -0.0198 0.0000 -0.9998
vn 0.9997 -0.0000 -0.0244
vn -0.9997 -0.0000 0.0244
vn 0.0279 -0.0000 0.9996
vn -0.0279 0.0000 -0.9996
vn 0.9995 0.0000 -0.0327
vn -0.9995 0.0000 0.0327
vn -0.0320 0.0000 -0.9995
vn 0.9996 0.0000 -0.0287
vn -0.9996 -0.0000 0.0287
vn 0.0297 -0.0000 0.9996
vn -0.0297 0.0000 -0.9996
vn 0.9982 0.0000 0.0607
vn -0.9982 0.0000 -0.0607
vn 0.0607 0.0000 -0.9982
vn 0.9997 0.0000 0.0251
vn -0.9997 0.0000 -0.0251
vn -0.0286 -0.0000 0.9996
vn 0.0286 0.0000 -0.9996
vn 0.0000 -0.0469 -0.9989
vn 0.0000 0.3036 -0.9528
vn 0.0000 0.6161 -0.7877
vn 0.0000 -0.0469 0.9989
vn 0.0000 0.3036 0.9528
vn 0.0000 0.6161 0.7877
usemtl Default_OBJ
s off
f 5/1/1 1/2/1 4/3/1 6/4/1
f 9/5/2 10/6/2 11/7/2 12/8/2
f 13/9/3 14/10/3 15/11/3 16/12/3
f 17/13/4 18/14/4 10/6/4 9/5/4
f 15/11/5 14/10/5 19/15/5 20/16/5
f 20/16/1 19/15/1 18/14/1 17/13/1
f 25/17/6 22/18/6 21/19/6 26/20/6
f 27/21/7 25/17/7 26/20/7 28/22/7
f 29/23/1 27/21/1 28/22/1 30/24/1
f 31/25/8 29/23/8 30/24/8 32/26/8
f 33/27/6 34/28/6 31/25/6 32/26/6
f 39/29/6 36/30/6 35/31/6 40/32/6
f 41/33/9 39/29/9 40/32/9 42/34/9
f 43/35/1 41/33/1 42/34/1 44/36/1
f 45/37/10 43/35/10 44/36/10 46/38/10
f 47/39/6 48/40/6 45/37/6 46/38/6
f 34/41/11 47/42/11 46/43/11 44/44/11 42/45/11 40/46/11 35/47/11 38/48/11 11/49/11 10/50/11 18/51/11 19/52/11 14/53/11 13/54/11 23/55/11 22/56/11 25/57/11 27/58/11 29/59/11 31/60/11
f 48/61/12 33/62/12 32/63/12 30/64/12 28/65/12 26/66/12 21/67/12 24/68/12 16/69/12 15/70/12 20/71/12 17/72/12 9/73/12 12/74/12 37/75/12 36/76/12 39/77/12 41/78/12 43/79/12 45/80/12
f 55/81/1 53/82/1 54/83/1 56/84/1
f 57/85/13 58/86/13 59/87/13 60/88/13
f 61/89/1 57/90/1 60/91/1 62/92/1
f 63/93/14 61/94/14 62/95/14 64/96/14
f 58/97/6 63/98/6 64/99/6 59/100/6
f 64/101/15 62/102/15 60/103/15 59/104/15
f 65/105/16 66/106/16 67/107/16 68/108/16
f 69/109/1 65/110/1 68/111/1 70/112/1
f 71/113/17 69/114/17 70/115/17 72/116/17
f 66/117/6 71/118/6 72/119/6 67/120/6
f 69/121/18 71/122/18 66/123/18 65/124/18
f 72/125/19 70/126/19 68/127/19 67/128/19
f 73/129/20 74/130/20 75/131/20 76/132/20
f 77/133/1 73/134/1 76/135/1 78/136/1
f 79/137/21 77/138/21 78/139/21 80/140/21
f 74/141/6 79/142/6 80/143/6 75/144/6
f 80/145/22 78/146/22 76/147/22 75/148/22
f 81/149/23 82/150/23 83/151/23 84/152/23
f 85/153/1 81/154/1 84/155/1 86/156/1
f 87/157/24 85/158/24 86/159/24 88/160/24
f 82/161/6 87/162/6 88/163/6 83/164/6
f 85/165/25 87/166/25 82/167/25 81/168/25
f 88/169/26 86/170/26 84/171/26 83/172/26
f 89/173/27 90/174/27 91/175/27 92/176/27
f 93/177/1 89/178/1 92/179/1 94/180/1
f 95/181/28 93/182/28 94/183/28 96/184/28
f 90/185/6 95/186/6 96/187/6 91/188/6
f 96/189/29 94/190/29 92/191/29 91/192/29
f 97/193/30 98/194/30 99/195/30 100/196/30
f 101/197/1 97/198/1 100/199/1 102/200/1
f 103/201/31 101/202/31 102/203/31 104/204/31
f 98/205/6 103/206/6 104/207/6 99/208/6
f 101/209/32 103/210/32 98/211/32 97/212/32
f 104/213/33 102/214/33 100/215/33 99/216/33
f 105/217/34 106/218/34 107/219/34 108/220/34
f 109/221/1 105/222/1 108/223/1 110/224/1
f 111/225/35 109/226/35 110/227/35 112/228/35
f 106/229/6 111/230/6 112/231/6 107/232/6
f 112/233/36 110/234/36 108/235/36 107/236/36
f 113/237/37 114/238/37 115/239/37 116/240/37
f 117/241/1 113/242/1 116/243/1 118/244/1
f 119/245/38 117/246/38 118/247/38 120/248/38
f 114/249/6 119/250/6 120/251/6 115/252/6
f 117/253/39 119/254/39 114/255/39 113/256/39
f 120/257/40 118/258/40 116/259/40 115/260/40
s 1
f 1/261/11 2/262/11 3/263/11 4/264/11
f 7/265/12 5/266/12 6/267/12 8/268/12
f 8/269/9 6/270/9 4/271/9 3/272/9
f 5/273/7 7/274/7 2/275/7 1/276/7
f 21/19/41 22/18/41 23/277/42 24/278/42
f 23/277/42 13/279/43 16/280/43 24/278/42
f 35/31/44 36/30/44 37/281/45 38/282/45
f 38/282/45 37/281/45 12/283/46 11/284/46
l 51 52
l 50 51
